<svg width="256" height="256" viewBox="0 0 256 256" fill="none" xmlns="http://www.w3.org/2000/svg">
<rect x="8.5" y="19.5" width="238" height="154" rx="9.5" stroke="white" stroke-width="7" stroke-linejoin="round"/>
<rect x="123" y="183" width="9" height="43" rx="4" fill="white"/>
<rect x="78" y="230" width="100" height="9" rx="4.5" fill="white"/>
<circle cx="128" cy="97" r="46.5" stroke="white" stroke-width="5"/>
<path d="M120.13 36H138.391L146 53H111L120.13 36Z" fill="white"/>
<path d="M79.4562 59.2925L92.3686 46.3801L109.77 53.0208L85.0208 77.7695L79.4562 59.2925Z" fill="white"/>
<path d="M90.2926 146.313L77.3802 133.401L84.0209 116L108.77 140.749L90.2926 146.313Z" fill="white"/>
<path d="M166.477 47.4562L179.389 60.3686L172.749 77.7696L148 53.0208L166.477 47.4562Z" fill="white"/>
<path d="M177.313 134.477L164.401 147.389L147 140.749L171.749 116L177.313 134.477Z" fill="white"/>
<path d="M136.87 158H118.609L111 141H146L136.87 158Z" fill="white"/>
<path d="M67 104.87V86.6087L84 79V114L67 104.87Z" fill="white"/>
<path d="M189 88.1304V106.391L172 114V79L189 88.1304Z" fill="white"/>
<circle cx="18" cy="18" r="18" transform="matrix(1 0 0 -1 110 115)" fill="#D9D9D9"/>
</svg>
