<svg width="256" height="256" viewBox="0 0 256 256" fill="none" xmlns="http://www.w3.org/2000/svg">
<g clip-path="url(#clip0_656_547)">
<path d="M116 184.029H115.244L114.677 184.529C112.061 186.838 111.068 189.124 109.968 191.771C109.923 191.879 109.878 191.987 109.833 192.097C108.786 194.621 107.508 197.704 104.562 202.112C98.409 211.321 89.663 218.499 79.4303 222.737C69.1976 226.976 57.9379 228.085 47.075 225.924C36.212 223.763 26.2338 218.43 18.402 210.598C10.5703 202.766 5.23682 192.788 3.07605 181.925C0.915278 171.062 2.02426 159.802 6.26277 149.57C10.5013 139.337 17.6789 130.591 26.8881 124.438C36.0972 118.284 46.9243 115 58 115H198C209.076 115 219.903 118.284 229.112 124.438C238.321 130.591 245.499 139.337 249.737 149.57C253.976 159.802 255.085 171.062 252.924 181.925C250.763 192.788 245.43 202.766 237.598 210.598C229.766 218.43 219.788 223.763 208.925 225.924C198.062 228.085 186.802 226.976 176.57 222.737C166.337 218.499 157.591 211.321 151.438 202.112C148.341 197.477 146.824 194.16 145.632 191.526C145.593 191.439 145.553 191.352 145.514 191.266C144.384 188.765 143.396 186.58 141.408 184.609L140.824 184.029H140H116Z" stroke="white" stroke-width="4"/>
<path d="M52.5258 140.852C52.6047 139.255 53.9228 138 55.5222 138H64.4778C66.0772 138 67.3953 139.255 67.4742 140.852L67.9783 151.06C67.9927 151.352 67.9644 151.644 67.8945 151.927L65.2298 162.719C64.8991 164.059 63.6972 165 62.3173 165H57.6827C56.3028 165 55.1009 164.059 54.7702 162.719L52.1055 151.927C52.0356 151.644 52.0073 151.352 52.0217 151.06L52.5258 140.852Z" fill="#D9D9D9"/>
<path d="M91.148 164.526C92.7454 164.605 94 165.923 94 167.522L94 176.478C94 178.077 92.7454 179.395 91.148 179.474L80.9397 179.978C80.6481 179.993 80.356 179.964 80.0726 179.894L69.2809 177.23C67.9412 176.899 67 175.697 67 174.317L67 169.683C67 168.303 67.9412 167.101 69.2809 166.77L80.0726 164.106C80.356 164.036 80.6481 164.007 80.9397 164.022L91.148 164.526Z" fill="#D9D9D9"/>
<path d="M28.852 179.474C27.2546 179.395 26 178.077 26 176.478L26 167.522C26 165.923 27.2546 164.605 28.852 164.526L39.0603 164.022C39.3519 164.007 39.644 164.036 39.9274 164.106L50.7191 166.77C52.0588 167.101 53 168.303 53 169.683L53 174.317C53 175.697 52.0588 176.899 50.7191 177.23L39.9274 179.894C39.644 179.964 39.3519 179.993 39.0603 179.978L28.852 179.474Z" fill="#D9D9D9"/>
<path d="M67.4742 203.148C67.3953 204.745 66.0772 206 64.4778 206L55.5222 206C53.9228 206 52.6047 204.745 52.5258 203.148L52.0217 192.94C52.0073 192.648 52.0356 192.356 52.1055 192.073L54.7702 181.281C55.1009 179.941 56.3028 179 57.6827 179L62.3173 179C63.6972 179 64.8991 179.941 65.2298 181.281L67.8945 192.073C67.9644 192.356 67.9927 192.648 67.9783 192.94L67.4742 203.148Z" fill="#D9D9D9"/>
<circle cx="187" cy="186" r="14" fill="#D9D9D9"/>
<circle cx="210" cy="148" r="14" fill="#D9D9D9"/>
<path d="M124.5 109.5V113H131.5V109.5H124.5ZM147 78.5L148.664 81.579L147 78.5ZM147 37L147.153 33.5034L147.077 33.5H147V37ZM109 41L106.93 38.1776L106.93 38.1776L109 41ZM114.5 62L113.305 65.2897L113.486 65.3554L113.673 65.4008L114.5 62ZM144 22.5L145.379 19.283L145.305 19.2512L145.229 19.2228L144 22.5ZM130.437 0.660966C130.802 -1.23725 129.559 -3.07198 127.661 -3.43702C125.763 -3.80206 123.928 -2.55918 123.563 -0.660966L130.437 0.660966ZM131.5 109.5C131.5 95.1409 139.763 86.3906 148.664 81.579L145.336 75.421C134.875 81.0755 124.5 91.8591 124.5 109.5H131.5ZM148.664 81.579C158.8 76.1001 166.643 65.1213 168.042 54.9435C168.755 49.7561 167.822 44.4304 164.201 40.2969C160.592 36.1776 154.837 33.8405 147.153 33.5034L146.847 40.4966C153.345 40.7818 156.994 42.6933 158.936 44.9095C160.865 47.1114 161.627 50.2079 161.107 53.99C160.04 61.751 153.7 70.8999 145.336 75.421L148.664 81.579ZM147 33.5C141.273 33.5 133.298 33.125 126.158 33.4409C122.53 33.6014 118.927 33.9423 115.686 34.6312C112.485 35.3118 109.375 36.3849 106.93 38.1776L111.07 43.8224C112.375 42.8651 114.39 42.0632 117.142 41.4782C119.854 40.9015 123.032 40.5861 126.467 40.4341C133.452 40.125 140.727 40.5 147 40.5V33.5ZM106.93 38.1776C105.034 39.5682 103.132 41.3472 101.673 43.42C100.222 45.4814 99.0727 48.0331 99.0573 50.8861C99.0239 57.0528 104.028 61.9197 113.305 65.2897L115.695 58.7103C107.132 55.5995 106.049 52.4136 106.057 50.924C106.062 49.9489 106.466 48.7717 107.397 47.4494C108.32 46.1385 109.629 44.8789 111.07 43.8224L106.93 38.1776ZM145.229 19.2228C141.264 17.736 138.229 16.4601 135.909 15.2036C133.59 13.9478 132.184 12.8151 131.311 11.708C129.75 9.72782 129.225 6.96413 130.437 0.660966L123.563 -0.660966C122.275 6.03587 122.25 11.5222 125.814 16.042C127.504 18.1849 129.816 19.8647 132.576 21.3589C135.333 22.8524 138.736 24.264 142.771 25.7772L145.229 19.2228ZM113.673 65.4008C133.602 70.2486 147.887 62.0407 154.074 50.6733C157.115 45.0874 158.189 38.7181 156.864 32.9506C155.519 27.095 151.712 21.9974 145.379 19.283L142.621 25.717C146.788 27.5026 149.169 30.7175 150.042 34.5182C150.936 38.4069 150.261 43.0376 147.926 47.3267C143.363 55.7093 132.398 62.7514 115.327 58.5992L113.673 65.4008Z" fill="white"/>
<path d="M121.002 106.05C121.943 104.762 123.443 104 125.039 104H131.206C132.942 104 134.554 104.901 135.464 106.38L142 117H113L121.002 106.05Z" fill="white"/>
</g>
<defs>
<clipPath id="clip0_656_547">
<rect width="256" height="256" fill="white"/>
</clipPath>
</defs>
</svg>
