<svg id="visual" viewBox="0 0 960 100" width="960" height="100" xmlns="http://www.w3.org/2000/svg" xmlns:xlink="http://www.w3.org/1999/xlink" version="1.1"><rect x="0" y="0" width="960" height="100" fill="#1d1d1d"></rect><path d="M0 24L8 27.2C16 30.3 32 36.7 48 35.5C64 34.3 80 25.7 96 21.2C112 16.7 128 16.3 144 20.5C160 24.7 176 33.3 192 33.7C208 34 224 26 240 26.2C256 26.3 272 34.7 288 35.3C304 36 320 29 336 26.5C352 24 368 26 384 27.5C400 29 416 30 432 30.3C448 30.7 464 30.3 480 27.8C496 25.3 512 20.7 528 20.5C544 20.3 560 24.7 576 25.3C592 26 608 23 624 21.7C640 20.3 656 20.7 672 19.8C688 19 704 17 720 20.3C736 23.7 752 32.3 768 35.7C784 39 800 37 816 34.7C832 32.3 848 29.7 864 29.3C880 29 896 31 912 30C928 29 944 25 952 23L960 21L960 0L952 0C944 0 928 0 912 0C896 0 880 0 864 0C848 0 832 0 816 0C800 0 784 0 768 0C752 0 736 0 720 0C704 0 688 0 672 0C656 0 640 0 624 0C608 0 592 0 576 0C560 0 544 0 528 0C512 0 496 0 480 0C464 0 448 0 432 0C416 0 400 0 384 0C368 0 352 0 336 0C320 0 304 0 288 0C272 0 256 0 240 0C224 0 208 0 192 0C176 0 160 0 144 0C128 0 112 0 96 0C80 0 64 0 48 0C32 0 16 0 8 0L0 0Z" fill="#000000" stroke-linecap="round" stroke-linejoin="miter"></path></svg>