<svg width="1786" height="829" viewBox="0 0 1786 829" fill="none" xmlns="http://www.w3.org/2000/svg">
<path d="M159 18C161.77 51.1901 166.489 83.8682 166.489 117.305C166.489 124.455 167.357 143.678 168.071 124.784C168.675 108.783 174.391 90.2719 186.212 79.162C192.636 73.1239 202.759 63.4901 209.18 74.1759C218.288 89.3351 217.65 108.378 225.49 124.036C238.388 149.795 259.434 79.9525 264.602 74.3421C269.331 69.2095 274.616 68.1878 280.996 67.0293C286.216 66.0815 279.041 71.5825 277.667 72.6801C272.007 77.2023 266.484 80.9962 261.523 86.4747C252.164 96.8109 242.74 115.945 253.035 128.856C260.058 137.663 273.481 137.993 281.828 131.681C301.604 116.729 310.177 88.1627 301.634 64.7025C299.071 57.6643 301.202 79.8223 302.799 87.1395C305.152 97.9199 312.537 110.203 321.939 116.391C344.212 131.05 349.664 98.0042 349.151 82.9015C348.863 74.413 344.74 49.3118 344.74 57.8051C344.74 67.0608 346.631 76.0091 348.485 85.062C352.592 105.11 367.571 137.95 385.018 106.917C392.739 93.1828 394.231 72.031 389.012 57.1403C386.311 49.4328 388.584 62.1457 390.51 65.118C404.331 86.4483 428.414 88.6997 447.597 72.0153C459.692 61.4958 473.873 34.4539 446.931 34.4539C435.533 34.4539 424.648 48.2973 420.302 57.722C413.96 71.4725 417.98 88.886 425.295 101.1C437.24 121.047 464.205 123.311 484.712 116.058C495.887 112.106 511.486 105.299 517 94.2862" stroke="white" stroke-width="18" stroke-linecap="round"/>
<path d="M652.64 41.3512C633.573 32.355 609.11 42.3665 599.048 60.7086C578.51 98.1499 641.501 120.529 667.37 102.844C680.129 94.1213 679.305 78.5081 677.938 64.4632C677.645 61.4482 670.769 42.3355 670.615 46.1906C670.047 60.4329 677.59 72.9436 688.756 81.6513C699.733 90.2113 714.044 94.0425 727.702 95.168C740.44 96.2177 744.217 95.2131 753 86.4071" stroke="white" stroke-width="18" stroke-linecap="round"/>
<path d="M9 278.384C9 294.413 9.09882 311.156 11.2482 327.045C12.5507 336.672 11.9977 330.307 11.9977 324.466C11.9977 314.326 11.8162 304.453 13.663 294.438C14.4344 290.255 22.4819 246.001 33.7308 258.421C43.1319 268.801 43.9814 292.473 44.972 305.584C45.0072 306.05 46.2401 317.665 47.137 317.146C52.4658 314.064 53.5801 297.635 54.9643 292.525C56.5891 286.526 70.0092 233.347 82.4429 240.121C91.5164 245.065 92.8066 268.31 92.9347 276.887C93.1526 291.467 92.9064 312.773 101.595 325.631C110.081 338.19 125.455 312.796 128.823 307.165C139.559 289.214 145.098 267.742 151.223 247.857C151.847 245.831 144.403 263.688 143.312 267.072C139.481 278.958 138.225 298.033 146.476 308.412C154.644 318.686 168.092 321.987 178.368 312.155C193.401 297.773 187.501 266.922 175.87 252.266C173.191 248.889 160.97 235.447 155.886 242.783C152.903 247.087 148.185 254.235 155.886 255.593C167.978 257.724 179.795 252.226 187.445 243.116C195.438 233.596 193.357 235.527 193.357 247.275C193.357 263.424 191.857 284.992 202.516 298.597C210.598 308.913 220.181 300.451 224.999 291.36C233.464 275.388 231.944 257.522 233.492 240.121C235.206 220.859 233.963 244.998 233.492 250.935C232.345 265.403 228.396 289.471 239.487 301.342C250.484 313.112 260.07 280.466 261.47 275.057C264.536 263.219 267.061 251.267 270.547 239.539C271.928 234.891 274.294 220.633 274.294 225.482C274.294 231.432 268.624 236.948 272.295 243.282C279.771 256.181 294.773 261.507 304.187 272.478C311.034 280.458 318.007 303.671 300.773 303.671C286.665 303.671 295.017 279.026 298.608 273.56C310.403 255.607 333.252 244.886 343.24 225.981C347.02 218.827 333.639 229.652 332.082 230.473C321.747 235.921 325.428 216.722 324.588 209.511C323.428 199.564 322.45 189.055 319.342 179.483C317.238 173.003 317.686 179.715 317.843 182.145C319.282 204.426 323.071 227.304 326.004 249.438C327.559 261.177 330.319 278.031 340.409 285.871C349.381 292.841 356.384 274.416 359.727 267.737C366.352 254.501 370.348 240.233 379.212 228.143C382.541 223.604 394.39 210.343 383.709 222.654C371.292 236.965 353.158 271.608 375.881 285.538C401.268 301.1 403.852 242.133 402.361 230.639C401.944 227.426 397.85 206.304 398.78 220.241C399.702 234.059 404.967 247.12 410.771 259.586C413.056 264.494 417.32 275.175 424.51 273.893C438.094 271.47 439.088 237.853 441.331 228.643C443.484 219.799 457.463 195.998 453.488 204.188C448.908 213.624 444.646 222.247 440.664 231.97C435.347 244.955 438.974 288.741 463.147 272.894C493.919 252.721 485.194 198.443 472.14 170.5C470.516 167.024 465.896 153.088 466.145 164.261C466.564 183.105 475.844 201.645 479.967 219.825C482.797 232.301 485.928 244.626 489.46 256.924C490.153 259.338 491.098 266.712 493.124 268.735C495.322 270.931 493.124 262.525 493.124 259.419C493.124 249.178 492.466 238.658 493.79 228.476C495.462 215.614 502.464 202.191 517.521 202.191C519.691 202.191 518.586 227.96 518.687 230.389C519.178 242.171 524.179 259.716 535.84 265.325C547.39 270.88 559.239 254.511 564.984 246.859C575.797 232.457 579.188 206.861 572.562 190.213C568.253 179.389 554.584 190.956 551.245 197.034C540.643 216.333 541.454 240.495 560.405 254.428C592.373 277.932 623.837 253.686 652 236.462" stroke="white" stroke-width="18" stroke-linecap="round"/>
<path d="M726 182.835C726 159.565 728.432 229.39 731.982 252.39C732.122 253.293 732.536 255.557 733.145 254.874C734.492 253.363 734.372 243.293 734.475 242.453C737.519 217.483 738.139 190.75 744.279 166.274C750.545 141.297 769.231 172.894 772.279 182.918C774.267 189.455 779.923 240.107 791.804 236.16C799.888 233.475 805.977 216.206 808.837 209.58C814.931 195.464 818.647 180.244 822.38 165.363C824.221 158.026 824.632 159.371 821.715 165.612C816.611 176.533 814.238 189.37 814.238 201.383C814.238 221.133 822.919 237.982 844.813 237.982C876.682 237.982 876.478 189.033 862.262 170.746C857.684 164.857 836.735 143.447 830.024 160.644C824.067 175.909 856.747 169.968 863.591 165.777C868.533 162.751 871.454 159.056 874.808 154.599C877.815 150.603 881.213 167.832 881.455 169.918C881.902 173.782 885.531 232.448 889.348 229.867C896.63 224.942 899.726 211.325 902.392 203.619C904.56 197.353 905.891 176.277 912.113 172.733C913.312 172.051 922.717 211.439 923.746 215.294C929.061 235.21 940.521 233.763 948.921 215.625C956.372 199.536 960.288 180.634 962.63 163.128C962.875 161.293 965.784 150.795 962.298 156.007" stroke="white" stroke-width="18" stroke-linecap="round"/>
<path d="M1003 75C1003 103.83 1009.51 131.549 1015.13 159.648C1016.42 166.111 1016.62 172.433 1019.34 178.477C1020.2 180.409 1022.41 185.538 1019.67 181.476" stroke="white" stroke-width="18" stroke-linecap="round"/>
<path d="M1025 207C1025 211.333 1024.84 214.948 1027 219" stroke="white" stroke-width="18" stroke-linecap="round"/>
<path d="M914.192 354.907C976.278 482.959 1135.85 552.976 1258.86 603.334C1391.18 657.505 1529.9 676.809 1670.32 695.784" stroke="white" stroke-width="18" stroke-linecap="round"/>
<path d="M1648.63 621.411C1656.98 623.268 1669.05 645.615 1673.59 650.85C1691.73 671.75 1711.61 690.275 1732.47 708.352C1742.67 717.195 1754.51 725.749 1766.39 732.282C1767.52 732.906 1776.91 739.151 1776.72 739.169C1766.71 740.079 1756.12 739.169 1746.07 739.169C1717.68 739.169 1693.81 749.83 1668.43 762.066C1650.14 770.881 1605.24 794.745 1605.24 819.74" stroke="white" stroke-width="18" stroke-linecap="round"/>
<path d="M45.1458 9.86597C44.3649 43.4449 34.8989 76.4833 25.2379 108.424C20.8219 123.024 12.3398 139.384 12.3398 154.969" stroke="white" stroke-width="18" stroke-linecap="round"/>
<path d="M1195.3 428.291C1203.62 427.25 1198.41 402.694 1187.4 403.018C1173.56 403.425 1166.54 420.056 1166.87 431.45C1167.38 449.33 1195.28 453.12 1207.59 450.404C1222.71 447.064 1238.16 437.524 1245.14 423.552C1250.81 412.213 1275.52 393.268 1288.14 403.369C1292.98 407.24 1289.07 404.489 1292.53 401.526C1295.33 399.124 1300.72 396.898 1304.29 396.699C1311.87 396.278 1318.31 394.499 1325.7 396.612C1340 400.697 1347.39 412.969 1360.54 418.813C1370.32 423.162 1376.11 426.711 1387.3 426.711C1404.31 426.711 1409.75 421.99 1424.34 414.074C1441.31 404.862 1439.26 373.89 1426.53 361.159C1419.8 354.433 1407.32 356.663 1403.1 365.108C1399.31 372.692 1391.25 385.642 1405.38 385.642" stroke="white" stroke-width="16" stroke-linecap="round"/>
<path d="M1255.32 420.393C1256.27 427.972 1285.45 431.45 1291.48 431.45C1313.01 431.45 1329.07 419.545 1346.94 409.336" stroke="white" stroke-width="16" stroke-linecap="round"/>
<path d="M1282.18 319.301C1282.18 336.525 1297.55 345.422 1312.19 346.153C1323.02 346.695 1308.49 351.594 1306.57 353.349C1300.49 358.923 1293.29 363.121 1285.33 365.108" stroke="white" stroke-width="16" stroke-linecap="round"/>
<path d="M1200.04 251.38C1170.09 270.465 1151.47 289.435 1141.68 324.391C1130.67 363.716 1125.37 406.175 1131.59 446.806C1135.63 473.177 1147.11 501.862 1168.45 518.852C1189.56 535.665 1217.35 538.893 1243.04 543.51C1293.05 552.502 1358.15 557.978 1403.27 529.031C1422.65 516.604 1440.32 501.407 1455.75 484.365C1472.87 465.461 1479.46 443.175 1483.39 418.287C1488.54 385.692 1476.56 357.458 1457.16 331.586C1431.34 297.168 1404.14 268.504 1364.14 251.029C1325.78 234.269 1288.82 216.805 1247.07 233.127C1224.66 241.89 1203.62 253.302 1181.43 262.437C1170.51 266.936 1166.87 268.321 1166.87 279.812" stroke="white" stroke-width="16" stroke-linecap="round"/>
<path d="M1201.69 345.265C1205.3 345.466 1213.84 348.876 1212.06 353.764C1211.3 355.855 1208.33 356.673 1206.34 356.492C1200.69 355.978 1197.75 352.144 1197.66 346.607C1197.56 340.591 1206.48 342.073 1207.68 346.875C1209.34 353.509 1199.08 359.741 1197.03 351.885C1194.8 343.33 1203.31 344.073 1207.32 348.53C1209.34 350.774 1210.28 353.928 1209.65 356.939C1208.95 360.253 1204.19 360.411 1202.67 357.7C1200.26 353.401 1199.85 346.513 1203.74 342.939C1205.76 341.083 1208.02 342.155 1209.33 344.057C1213.53 350.111 1207.03 357.815 1203.3 348.485" stroke="white" stroke-width="16" stroke-linecap="round"/>
<path d="M1362.71 311.449C1355.86 307.807 1365.19 304.491 1366.74 309.571C1367.23 311.179 1368.37 314.765 1366.96 316.28C1364.39 319.051 1359.47 318.068 1357.48 315.296C1353.5 309.765 1354.02 297.832 1363.79 301.43C1367.4 302.76 1372.26 311.51 1366.92 313.686C1362.9 315.322 1356 308.617 1361.28 306.171C1365.93 304.015 1370.39 309.509 1369.91 313.775C1369.23 319.937 1359.58 317.716 1359.58 311.494C1359.58 309.087 1361.94 304.432 1364.68 304.203C1368.44 303.89 1367.43 311.894 1367.54 313.865" stroke="white" stroke-width="16" stroke-linecap="round"/>
<path d="M1124.39 365.393C1109.13 359.898 1097.76 358.221 1084.23 369.777C1068.85 382.901 1063.36 406.782 1070.49 425.554C1074.86 437.053 1083.49 447.817 1094.6 453.376C1105.88 459.015 1116.01 456.567 1127.61 454.763" stroke="white" stroke-width="16" stroke-linecap="round"/>
<path d="M1330.51 498.24C1332.75 506.352 1333.73 513.989 1333.73 522.394" stroke="white" stroke-width="16" stroke-linecap="round"/>
<path d="M1412.63 284.075C1415.63 283.575 1418.51 281.06 1420.95 279.468C1427.14 275.423 1433.36 271.324 1439.91 267.883C1451.15 261.98 1464.31 260.828 1474.71 269.225C1483.41 276.24 1489.88 291.052 1484.55 301.698C1479.34 312.13 1469.74 319.131 1458.52 321.111" stroke="white" stroke-width="16" stroke-linecap="round"/>
</svg>
